<mxfile host="drawio-plugin" modified="2023-02-27T06:08:04.774Z" agent="5.0 (Windows NT 6.2; Win64; x64) AppleWebKit/537.36 (KHTML, like Gecko) Chrome/89.0.4389.114 Safari/537.36" etag="ucA6wxBtimyYbOioRtnk" version="20.5.3" type="embed"><diagram id="weuWsWrYd2csO-W0EDVw" name="第 1 页"><mxGraphModel dx="621" dy="733" grid="1" gridSize="10" guides="1" tooltips="1" connect="1" arrows="1" fold="1" page="1" pageScale="1" pageWidth="827" pageHeight="1169" math="0" shadow="0"><root><mxCell id="0"/><mxCell id="1" parent="0"/><mxCell id="36" style="rounded=0;orthogonalLoop=1;jettySize=auto;html=1;exitX=0.5;exitY=1;exitDx=0;exitDy=0;entryX=0.75;entryY=0;entryDx=0;entryDy=0;" edge="1" parent="1" source="2" target="3"><mxGeometry relative="1" as="geometry"/></mxCell><mxCell id="37" style="edgeStyle=none;rounded=0;orthogonalLoop=1;jettySize=auto;html=1;exitX=0.5;exitY=1;exitDx=0;exitDy=0;entryX=0.25;entryY=0;entryDx=0;entryDy=0;" edge="1" parent="1" source="2" target="4"><mxGeometry relative="1" as="geometry"/></mxCell><mxCell id="39" style="edgeStyle=none;rounded=0;orthogonalLoop=1;jettySize=auto;html=1;entryX=0;entryY=0.25;entryDx=0;entryDy=0;exitX=1;exitY=0.25;exitDx=0;exitDy=0;" edge="1" parent="1" source="3" target="4"><mxGeometry relative="1" as="geometry"/></mxCell><mxCell id="3" value="事件" style="rounded=0;whiteSpace=wrap;html=1;" parent="1" vertex="1"><mxGeometry x="40" y="200" width="120" height="60" as="geometry"/></mxCell><mxCell id="40" style="edgeStyle=none;rounded=0;orthogonalLoop=1;jettySize=auto;html=1;entryX=0.5;entryY=0;entryDx=0;entryDy=0;exitX=0.5;exitY=1;exitDx=0;exitDy=0;" edge="1" parent="1" source="4" target="5"><mxGeometry relative="1" as="geometry"/></mxCell><mxCell id="4" value="业务逻辑" style="rounded=0;whiteSpace=wrap;html=1;" parent="1" vertex="1"><mxGeometry x="280" y="200" width="120" height="60" as="geometry"/></mxCell><mxCell id="5" value="请求数据" style="rounded=0;whiteSpace=wrap;html=1;" parent="1" vertex="1"><mxGeometry x="280" y="320" width="120" height="60" as="geometry"/></mxCell><mxCell id="12" value="Handler" style="text;html=1;align=center;verticalAlign=middle;resizable=0;points=[];autosize=1;strokeColor=none;fillColor=none;" parent="1" vertex="1"><mxGeometry x="40" y="170" width="70" height="30" as="geometry"/></mxCell><mxCell id="13" value="Service" style="text;html=1;align=center;verticalAlign=middle;resizable=0;points=[];autosize=1;strokeColor=none;fillColor=none;" parent="1" vertex="1"><mxGeometry x="340" y="170" width="60" height="30" as="geometry"/></mxCell><mxCell id="23" value="tools" style="rounded=0;whiteSpace=wrap;html=1;" parent="1" vertex="1"><mxGeometry x="440" y="80" width="120" height="60" as="geometry"/></mxCell><mxCell id="24" value="1" style="ellipse;whiteSpace=wrap;html=1;fillColor=#60a917;fontColor=#ffffff;strokeColor=#2D7600;" parent="1" vertex="1"><mxGeometry x="50" y="40" width="20" height="20" as="geometry"/></mxCell><mxCell id="25" value="2" style="ellipse;whiteSpace=wrap;html=1;fillColor=#60a917;fontColor=#ffffff;strokeColor=#2D7600;" parent="1" vertex="1"><mxGeometry x="250" y="30" width="20" height="20" as="geometry"/></mxCell><mxCell id="26" value="3" style="ellipse;whiteSpace=wrap;html=1;fillColor=#60a917;fontColor=#ffffff;strokeColor=#2D7600;" parent="1" vertex="1"><mxGeometry x="120" y="30" width="20" height="20" as="geometry"/></mxCell><mxCell id="32" value="2.1" style="ellipse;whiteSpace=wrap;html=1;fillColor=#ffe6cc;strokeColor=#d79b00;" parent="1" vertex="1"><mxGeometry x="485" y="230" width="30" height="30" as="geometry"/></mxCell><mxCell id="33" value="2.2" style="ellipse;whiteSpace=wrap;html=1;fillColor=#ffe6cc;strokeColor=#d79b00;" parent="1" vertex="1"><mxGeometry x="485" y="280" width="30" height="30" as="geometry"/></mxCell><mxCell id="38" value="" style="group" vertex="1" connectable="0" parent="1"><mxGeometry x="160" y="50" width="120" height="90" as="geometry"/></mxCell><mxCell id="2" value="" style="rounded=0;whiteSpace=wrap;html=1;" parent="38" vertex="1"><mxGeometry y="30" width="120" height="60" as="geometry"/></mxCell><mxCell id="11" value="View" style="text;html=1;align=center;verticalAlign=middle;resizable=0;points=[];autosize=1;strokeColor=none;fillColor=none;" parent="38" vertex="1"><mxGeometry x="35" width="50" height="30" as="geometry"/></mxCell><mxCell id="27" value="组件" style="rounded=0;whiteSpace=wrap;html=1;" parent="38" vertex="1"><mxGeometry x="5" y="45" width="50" height="30" as="geometry"/></mxCell><mxCell id="28" value="页面" style="rounded=0;whiteSpace=wrap;html=1;" parent="38" vertex="1"><mxGeometry x="65" y="45" width="50" height="30" as="geometry"/></mxCell><mxCell id="41" value="Request" style="text;html=1;align=center;verticalAlign=middle;resizable=0;points=[];autosize=1;strokeColor=none;fillColor=none;" vertex="1" parent="1"><mxGeometry x="335" y="290" width="70" height="30" as="geometry"/></mxCell></root></mxGraphModel></diagram></mxfile>